<svg id="OBJECTS" xmlns="http://www.w3.org/2000/svg" viewBox="0 0 117.01 101.2"><defs><style>.cls-1{fill:#f9ead6;}.cls-2{fill:#c64754;}.cls-3{opacity:0.5;}.cls-4{fill:#fff;}.cls-5{fill:#603745;}.cls-6{fill:#65add9;}</style></defs><path class="cls-1" d="M457.11,135a6.12,6.12,0,0,1-4.8-2c-8.17-7.09-32.36-6.08-32.36-6.08L409.85,97.3s28.63,2.78,42.46,12.28a6.69,6.69,0,0,0,9.6,0c13.82-9.5,42.46-12.28,42.46-12.28l-10.11,29.61s-24.19-1-32.35,6.08A6.14,6.14,0,0,1,457.11,135Z" transform="translate(-398.6 -71.82)"/><path class="cls-1" d="M457.11,140.53a6.64,6.64,0,0,1-5.21-2.2c-8.87-7.7-35.13-6.6-35.13-6.6l-11-32s31.08.76,46.09,11.08a7.27,7.27,0,0,0,10.42,0c15-10.32,46.09-11.08,46.09-11.08l-11,32s-26.26-1.1-35.12,6.6A6.67,6.67,0,0,1,457.11,140.53Z" transform="translate(-398.6 -71.82)"/><path class="cls-1" d="M457.11,150.79a7.56,7.56,0,0,1-5.94-2.51c-10.11-8.78-40.06-7.53-40.06-7.53L398.6,106.27v-2.2s35.45-2.82,52.57,8.94a8.28,8.28,0,0,0,11.88,0c17.12-11.76,52.56-8.94,52.56-8.94v2.2L503.1,140.75s-29.94-1.25-40.05,7.53A7.59,7.59,0,0,1,457.11,150.79Z" transform="translate(-398.6 -71.82)"/><path class="cls-2" d="M456.6,172.91v.1A.36.36,0,0,0,456.6,172.91Z" transform="translate(-398.6 -71.82)"/><path class="cls-2" d="M463.05,115.21a8.28,8.28,0,0,1-11.88,0c-17.12-11.76-52.57-8.94-52.57-8.94l12.51,36.67h.41c44.76,2,45.11,28.13,45.08,30,.06-1.84,1.74-28,46.5-30l12.51-36.67S480.17,103.45,463.05,115.21Z" transform="translate(-398.6 -71.82)"/><g class="cls-3"><path class="cls-4" d="M476.11,118.38l-1.89,8.34c9.1-3.65,21.14-4.13,27.62-4.09l2.8-7.44S488.11,114.08,476.11,118.38Z" transform="translate(-398.6 -71.82)"/></g><path class="cls-5" d="M455.57,76.72a29.15,29.15,0,0,1,8.24,14.87A19.29,19.29,0,0,0,466,87.11c4-11.76,8.21-14.09,13.8-13.58C479.82,73.53,465.88,69.52,455.57,76.72Z" transform="translate(-398.6 -71.82)"/><path class="cls-6" d="M459.21,107.13c8.53-33.62-24.75-35.31-24.75-35.31,5.45,1.34,8.64,4.89,8.63,17.32a17.1,17.1,0,0,0,10.28,16.23A15.8,15.8,0,0,0,459.21,107.13Z" transform="translate(-398.6 -71.82)"/><path class="cls-5" d="M463.05,115.21a8.29,8.29,0,0,1-11.84.05c.28,4.1,2.09,31.41,1.89,46a23.71,23.71,0,0,1,3.5,11.7A24.59,24.59,0,0,1,460.8,161c0-15.47,2.09-43,2.31-45.86Z" transform="translate(-398.6 -71.82)"/></svg>