<svg id="OBJECTS" xmlns="http://www.w3.org/2000/svg" viewBox="0 0 689.44 920.95"><defs><style>.cls-1{fill:#fab05f;}.cls-2{fill:#f5e9dd;}.cls-3{fill:#4f3332;}.cls-4{fill:#f07857;}.cls-5{fill:#c4d4eb;}.cls-6{fill:#695935;}</style></defs><polygon class="cls-1" points="454.79 735.78 2 786.14 183.25 902.09 636.04 851.72 454.79 735.78"/><path class="cls-2" d="M2830.46,1522.38l-165.24-105.69V1338l160.61,102.73C2842.25,1468.72,2843.79,1495.56,2830.46,1522.38Z" transform="translate(-2651.55 -623.08)"/><path class="cls-1" d="M2834.58,1432.18l-181.24-115.93v14.1l11.88,7.61,38.31,24.5,122.3,78.23c16.42,28,18,54.87,4.63,81.69l-137.19-87.75-28.05-17.94-11.88-7.61v14.1l181.24,115.94C2857.52,1503.28,2856.33,1467.64,2834.58,1432.18Z" transform="translate(-2651.55 -623.08)"/><path class="cls-1" d="M3287.37,1488.76l-452.79,50.36c22.94-35.84,21.75-71.48,0-106.94l452.79-50.36C3304.59,1418,3305.1,1453.64,3287.37,1488.76Z" transform="translate(-2651.55 -623.08)"/><polygon class="cls-1" points="454.57 642.8 1.78 693.16 183.03 809.11 635.82 758.75 454.57 642.8"/><path class="cls-3" d="M3013.31,1278h0a1.79,1.79,0,1,0-1.79-1.79A1.78,1.78,0,0,0,3013.32,1278Z" transform="translate(-2651.55 -623.08)"/><path class="cls-3" d="M3289.14,1381.63a1.79,1.79,0,0,0-2-1.58L2835,1430.34,2778.17,1394l-.18-.1-123.69-79.12a1.79,1.79,0,1,0-1.92,3L2776.22,1397l.18.09,56.87,36.39c.2.33.39.66.58,1,.49.81,1,1.64,1.45,2.46l.94,1.69c.35.63.69,1.25,1,1.88s.77,1.47,1.14,2.2l.47.93c.43.88.85,1.75,1.26,2.62l.21.46c.48,1,.94,2.07,1.38,3.11l0,.09a97,97,0,0,1,7.16,26.07c0,.27.07.54.1.81.09.85.18,1.69.25,2.54,0,.31,0,.61.07.91.05.73.09,1.46.13,2.18,0,.4,0,.79,0,1.18,0,.88.06,1.77.06,2.65s0,1.54,0,2.35-.05,1.36-.08,2.09-.08,1.33-.14,2.06c0,.26,0,.52-.07.78l0,.46c-.11,1.31-.26,2.59-.45,3.9l0,.36c-.1.65-.2,1.3-.31,2h0c0,.12-.05.24-.07.36-.08.48-.16,1-.26,1.42a.5.5,0,0,0,0,.12c0,.12-.05.26-.07.39a.8.8,0,0,0,0,.18c-.14.7-.29,1.41-.45,2.12v0l0,.1c-.16.75-.34,1.51-.54,2.27,0,0,0,.06,0,.09v0c-.18.7-.37,1.41-.58,2.12l0,.1c-.14.52-.3,1-.47,1.58-.1.33-.19.67-.3,1-.22.7-.44,1.38-.69,2.1s-.52,1.51-.8,2.26c-.05.15-.11.3-.17.45q-.86,2.28-1.83,4.55c-.37.85-.74,1.67-1.11,2.48l-.24.53c-.46,1-.93,2-1.42,2.93-.25.49-.5,1-.8,1.55s-.55,1-.83,1.56l-.2.36c-.32.6-.66,1.2-1,1.83s-.7,1.2-1.07,1.83-.7,1.18-1.09,1.81l-1.15,1.83a1.73,1.73,0,0,0,.58,2.41,1.7,1.7,0,0,0,.92.27,1.88,1.88,0,0,0,1.57-.87c.38-.59.75-1.18,1.14-1.81s.76-1.24,1.11-1.84.75-1.26,1.09-1.87.72-1.27,1.06-1.89l.18-.35c.3-.55.6-1.09.91-1.7s.53-1,.78-1.52c.51-1,1-2,1.48-3,.07-.15.14-.32.22-.48.4-.86.78-1.73,1.16-2.6,0-.08.07-.15.1-.23.3-.7.59-1.4.89-2.13q.55-1.4,1.08-2.82c.29-.78.57-1.57.83-2.34s.47-1.38.7-2.1a.24.24,0,0,1,0-.08v0h0l.17-.55c.07-.22.13-.43.19-.65.15-.51.32-1,.45-1.52.22-.76.43-1.53.62-2.29l0-.11c.2-.78.39-1.56.55-2.32a.29.29,0,0,0,0-.09h0v0h0l0-.13c.14-.6.26-1.2.38-1.81l0-.16s0,0,0-.08c.14-.7.27-1.4.39-2.09,0-.13,0-.27.07-.4l0-.14c.11-.67.21-1.34.31-2l.06-.38c.08-.56.15-1.11.21-1.66,0-.08,0-.16,0-.25,0-.25.05-.5.08-.76l0-.26.12-1.2,0-.43c0-.31.06-.61.07-.86.06-.71.11-1.41.15-2.18s.07-1.45.08-2.14,0-1.62,0-2.43,0-1.54,0-2.28c0-.11,0-.22,0-.33,0-.45,0-.89-.05-1.33q0-1-.12-2c0-.35-.05-.71-.08-1.06s0-.51-.06-.78c0-.42-.07-.83-.11-1.23-.09-.84-.19-1.7-.3-2.51-.08-.58-.16-1.16-.25-1.75-.11-.74-.23-1.48-.38-2.32-.07-.41-.14-.83-.22-1.16s-.08-.48-.13-.7c-.21-1.08-.44-2.15-.7-3.21-.31-1.35-.64-2.62-1-3.88-.21-.73-.41-1.44-.62-2.11-.07-.24-.13-.47-.21-.72l0-.13c0-.13-.09-.27-.12-.36s-.07-.27-.11-.41-.14-.43-.22-.65l-.11-.35c-.77-2.31-1.63-4.62-2.53-6.85s-2-4.61-3.05-6.85c-.45-.94-.93-1.88-1.41-2.82l-.08-.15-.23-.46c-.22-.42-.46-.84-.68-1.26-.42-.77-.83-1.55-1.27-2.32-.28-.51-.57-1-.86-1.52l-.59-1,450-50A1.78,1.78,0,0,0,3289.14,1381.63Z" transform="translate(-2651.55 -623.08)"/><polygon class="cls-4" points="371.82 765.44 27.03 680.8 224.75 589.91 569.54 674.55 371.82 765.44"/><path class="cls-4" d="M3023.45,1401.57l-344.8-84.65c-13.53-39.67-14.77-76.94,0-111.12l344.8,84.65C3006.62,1327.8,3006.33,1364.84,3023.45,1401.57Z" transform="translate(-2651.55 -623.08)"/><path class="cls-4" d="M3159.05,1241.19l50.24-23.1,11.88-5.47v-13.07l-197.72,90.9c-16.83,37.35-17.12,74.39,0,111.12l197.72-90.9v-13.08l-11.88,5.47-46.94,21.58-132.67,61c-10.38-28.46-9.43-56.82,2.86-86.28Z" transform="translate(-2651.55 -623.08)"/><path class="cls-2" d="M3209.29,1218.09v85l-179.61,82.57c-10.38-28.46-9.43-56.82,2.86-86.28Z" transform="translate(-2651.55 -623.08)"/><polygon class="cls-4" points="371.9 667.37 27.1 582.72 224.82 491.83 569.62 576.48 371.9 667.37"/><path class="cls-3" d="M2798.36,1152.55h0a1.78,1.78,0,1,0-1.8-1.78A1.77,1.77,0,0,0,2798.37,1152.55Z" transform="translate(-2651.55 -623.08)"/><path class="cls-3" d="M3222.78,1198.81a1.78,1.78,0,0,0-2.36-.87l-197.15,90.62-205.16-50.36-.09,0-138.94-34.1a1.78,1.78,0,0,0-.85,3.46l139,34.12.06,0h0l203.61,50-.36.84c-.39.91-.77,1.81-1.12,2.68h0v0l-.08.2-.17.41v0l-.18.43-.2.51-.13.33c-.11.26-.21.52-.31.78l-.09.23-.2.51,0,.07h0v0l-.1.27c-.29.76-.57,1.51-.83,2.27a1.11,1.11,0,0,0-.07.16c-.3.84-.59,1.67-.87,2.51l-.37,1.07c0,.09-.05.17-.07.25-.21.61-.41,1.22-.58,1.79s-.32,1-.44,1.43-.3,1-.43,1.41c-.49,1.68-.91,3.22-1.28,4.67-.11.41-.21.82-.3,1.22-.23.92-.45,1.85-.65,2.77-.15.66-.29,1.33-.44,2-.05.24-.11.49-.15.73h0l-.34,1.8c-.09.46-.17.93-.26,1.41-.13.75-.26,1.48-.37,2.17,0,0,0,.07,0,.11s0,.2-.05.3v0c-.27,1.72-.5,3.47-.71,5.26a1.84,1.84,0,0,0,0,.33c-.11.84-.19,1.68-.26,2.49v0h0c-.13,1.3-.23,2.63-.29,3.92v.33s0,.11,0,.16c0,.27,0,.53,0,.81a4.19,4.19,0,0,0,0,.5v.2c0,.78-.06,1.58-.08,2.38v.2c0,1.73,0,3.25,0,4.61v.12c0,.62,0,1.24.05,1.82s0,1.33.07,2,.06,1.32.11,2c0,0,0,.06,0,.09.09,1.67.24,3.38.42,5,.07.66.14,1.31.22,2s.16,1.31.25,1.93.19,1.29.28,1.93.21,1.31.32,1.95c.3,1.8.62,3.49,1,5.11h0v0c.14.63.27,1.25.42,1.88.09.45.19.9.31,1.36l.11.48c.15.64.31,1.27.47,1.86l.42,1.56.07.28c.06.23.13.46.18.62.2.76.42,1.51.65,2.25s.52,1.71.79,2.55.55,1.73.85,2.58a146.09,146.09,0,0,0,5.9,14.65,1.79,1.79,0,0,0,1.62,1,1.68,1.68,0,0,0,.75-.17,1.77,1.77,0,0,0,.86-2.37,139.81,139.81,0,0,1-5.76-14.31c-.29-.82-.56-1.64-.82-2.49s-.53-1.65-.78-2.5-.43-1.44-.64-2.22l-.15-.51-.08-.32c-.14-.5-.27-1-.41-1.53s-.31-1.17-.46-1.82l-.12-.51c-.1-.4-.19-.81-.29-1.27s-.27-1.21-.4-1.81c-.33-1.6-.65-3.24-1-5-.1-.62-.21-1.24-.3-1.88s-.19-1.23-.28-1.9-.17-1.23-.24-1.86-.15-1.23-.21-1.87c-.17-1.64-.31-3.33-.42-5,0-.62-.08-1.23-.11-1.89s-.05-1.23-.07-1.89,0-1.19,0-1.87c0-1.24,0-2.44,0-3.6h0c0-.36,0-.72,0-1.07,0-.78,0-1.56.08-2.32v-.24c0-.1,0-.2,0-.31a.49.49,0,0,1,0-.12c0-.26,0-.51,0-.78v-.32c.06-1.16.15-2.31.25-3.45,0-.19,0-.38,0-.57.08-.83.16-1.66.25-2.49a1,1,0,0,0,0-.18l0-.16c.2-1.71.43-3.45.7-5.17,0,0,0-.06,0-.09a.5.5,0,0,1,0-.12c.11-.73.24-1.43.36-2.13.08-.46.16-.93.26-1.42s.22-1.2.34-1.79l.57-2.67c.2-.89.41-1.79.64-2.71.09-.38.18-.75.29-1.15.37-1.45.78-2.94,1.26-4.59.13-.45.27-.9.42-1.39s.25-.88.41-1.36.38-1.2.59-1.8h0v0l.41-1.22c.25-.74.51-1.48.77-2.23a1.08,1.08,0,0,0,.08-.19v0h0c.08-.21.16-.42.23-.63.25-.67.49-1.35.74-2l.19-.49,0-.11c.23-.6.46-1.19.69-1.76l.44-1.07c.35-.88.72-1.76,1.1-2.64q.45-1.07.93-2.13l57.9-26.61.06,0h.06l139.08-64A1.78,1.78,0,0,0,3222.78,1198.81Z" transform="translate(-2651.55 -623.08)"/><polygon class="cls-5" points="347.25 491.3 567.53 544.92 254.59 614.47 34.32 560.85 347.25 491.3"/><path class="cls-2" d="M2894.15,1186.32v48.25L2695,1186.1c-5.43-17.39-5.95-33.43-1.59-48.64Z" transform="translate(-2651.55 -623.08)"/><polygon class="cls-2" points="555.64 499.18 555.64 547.55 254.72 614.44 242.6 611.49 242.6 563.24 251.8 565.47 254.48 566.13 257.18 565.52 555.64 499.18"/><path class="cls-5" d="M3139.24,1185.74l-233,51.78-.23-.06v12.24l.12,0,312.92-69.56V1168l-11.88,2.63ZM2906.16,1177l-.12,0v12.22l2.69-.6,230.54-51.24,67.93-15.1,11.88-2.64v-12.18Z" transform="translate(-2651.55 -623.08)"/><path class="cls-5" d="M2693.43,1137.46c-4.36,15.21-3.84,31.25,1.59,48.64l211,51.36v12.24l-220.17-53.59c-9.25-25.14-10-49.45,0-72.72L2906,1177v12.22l-2.69-.65Z" transform="translate(-2651.55 -623.08)"/><polygon class="cls-5" points="347.25 430.75 567.53 484.37 254.6 553.93 34.32 500.31 347.25 430.75"/><path class="cls-3" d="M2906,1235.71a1.82,1.82,0,0,0-1.78,1.82v12.17a1.78,1.78,0,1,0,3.56,0v-12.24A1.75,1.75,0,0,0,2906,1235.71Z" transform="translate(-2651.55 -623.08)"/><path class="cls-3" d="M3220.82,1107.06a1.77,1.77,0,0,0-1.77-1.39,1.47,1.47,0,0,0-.36,0l-129.92,28.88h-.1l-182.5,40.57-219.87-53.53a1.79,1.79,0,0,0-.85,3.47L2798,1152.51h0l17.47,4.26h.13l88.67,21.59v10.83a1.78,1.78,0,1,0,3.56,0v-10.75l33.72-7.49,147.9-32.88h0l130-28.9A1.78,1.78,0,0,0,3220.82,1107.06Z" transform="translate(-2651.55 -623.08)"/><polygon class="cls-1" points="363.21 529.32 29.76 505.43 203.97 406.99 537.43 430.89 363.21 529.32"/><polygon class="cls-1" points="363.22 458.7 29.76 434.81 203.98 336.38 537.43 360.27 363.22 458.7"/><path class="cls-1" d="M3014.77,1081.78l-333.45-23.89v9.84l83.53,6.17,1.11.08,243.32,17.43c14.26,21.62,14.52,41.09.78,60.65l-250.86-18-67.88-4.86-10-.72v10l333.45,23.89C3036.17,1135.73,3034.41,1108.84,3014.77,1081.78Z" transform="translate(-2651.55 -623.08)"/><path class="cls-2" d="M3010.06,1152.06l-318.74-22.84v-60.59l318,22.78C3023.54,1113,3023.8,1132.5,3010.06,1152.06Z" transform="translate(-2651.55 -623.08)"/><path class="cls-1" d="M3189,1064l-174.22,98.43c21.4-26.69,19.64-53.58,0-80.64L3189,983.35C3206.07,1008.81,3204.42,1035.83,3189,1064Z" transform="translate(-2651.55 -623.08)"/><path class="cls-3" d="M3190.29,982.61a1.49,1.49,0,0,0-2-.56l-173.83,98.2-222.08-15.9h-.05l-110.86-7.95a1.5,1.5,0,1,0-.22,3l110.9,7.95h0l221.8,15.89.67,1,.5.71c11.29,16.5,15.52,32.52,12.65,47.81a59.28,59.28,0,0,1-4.44,13.44h0l0,0a71.06,71.06,0,0,1-5.48,9.56s-.07.1-.1.16c-1.27,1.86-2.65,3.73-4.13,5.58a1.5,1.5,0,0,0,0,1.9,1.45,1.45,0,0,0,.22.21,1.52,1.52,0,0,0,.94.33,1.5,1.5,0,0,0,1.17-.56,82.76,82.76,0,0,0,8.79-13.31c.45-.86.88-1.72,1.29-2.59v0h0v0a57.6,57.6,0,0,0,4.64-14c3.22-16-.8-31.86-12.24-49a2.2,2.2,0,0,0-.17-.25c-.35-.54-.72-1.07-1.09-1.61l-.24-.34,172.78-97.61A1.5,1.5,0,0,0,3190.29,982.61Z" transform="translate(-2651.55 -623.08)"/><polygon class="cls-5" points="549.45 338.51 236.1 317.82 43.15 419.94 356.5 440.63 549.45 338.51"/><path class="cls-5" d="M3007.57,997.42l2.83.19,2.5-1.33L3140.09,929l51.09-27,10-5.29V885.32l-193,102.12-313.34-20.68c-21.18,30-22.54,59.21,0,87.49l313.34,20.69,193-102.13V961.5l-10,5.29-40.67,21.52-144.46,76.46-306-20.2c-7.93-11-11.73-21.94-11.59-33.31.12-10.82,4-22.29,11.48-34.15Z" transform="translate(-2651.55 -623.08)"/><path class="cls-2" d="M3191.18,901.93v64.86l-185.13,98-306-20.2c-7.93-11-11.73-21.94-11.59-33.31.12-10.82,4-22.29,11.48-34.15l307.6,20.31,2.83.19,2.5-1.33Z" transform="translate(-2651.55 -623.08)"/><polygon class="cls-5" points="549.63 262.24 236.28 241.56 43.32 343.68 356.67 364.36 549.63 262.24"/><path class="cls-3" d="M3202.5,884.62a1.49,1.49,0,0,0-2-.62L3007.89,985.92,2695,965.26a1.5,1.5,0,0,0-.2,3l313.34,20.68h.1a1.57,1.57,0,0,0,.7-.17l193-102.12A1.5,1.5,0,0,0,3202.5,884.62Z" transform="translate(-2651.55 -623.08)"/><polygon class="cls-6" points="507.83 251.99 250.39 231.21 81.76 320.94 339.19 341.73 507.83 251.99"/><path class="cls-2" d="M2981,897.34v67.83L2739.4,945.68c-12.35-21.46-12.41-43.75-.19-67.85Z" transform="translate(-2651.55 -623.08)"/><polygon class="cls-2" points="498.05 191.96 498.05 257.19 337.3 342.73 329.42 342.1 329.42 274.26 338.61 275 341.53 275.25 344.11 273.86 498.05 191.96"/><path class="cls-6" d="M3108.9,901.93,2991,964.68V976l168.63-89.74V875l-10,5.31ZM2991,888.12v10l2.11.17,2.58-1.38,92.58-49.26L3149.6,815l10-5.32V798.38Z" transform="translate(-2651.55 -623.08)"/><path class="cls-6" d="M2739.21,877.83c-12.22,24.1-12.16,46.39.19,67.85l249.45,20.13,2.12-1.13V976l-257.44-20.78c-18.51-28.41-17.39-57.77,0-87.91L2991,888.12v10l-.81-.07Z" transform="translate(-2651.55 -623.08)"/><polygon class="cls-6" points="508.05 175.3 250.61 154.52 81.98 244.26 339.41 265.04 508.05 175.3"/><path class="cls-3" d="M3160.92,797.68a1.5,1.5,0,0,0-2-.62l-145.3,77.32h0l-.06,0-22.88,12.17-235.34-19-21.64-1.74a1.47,1.47,0,0,0-.72.13l-.08,0-.06,0a1.94,1.94,0,0,0-.29.21l-.13.14c0,.06-.09.13-.14.2l-.08.13a1.58,1.58,0,0,0-.11.37s0,.08,0,.11,0,.1,0,.15a2,2,0,0,0,0,.25v0h0a1.56,1.56,0,0,0,.15.41.25.25,0,0,0,0,.07,1.31,1.31,0,0,0,.25.32l.08.06a1.17,1.17,0,0,0,.3.19l.08,0a1.56,1.56,0,0,0,.37.1l.08,0,77.23,6.23,114.52,9.24,64.31,5.2v8.64a1.5,1.5,0,1,0,3,0V889l167.83-89.31A1.5,1.5,0,0,0,3160.92,797.68Z" transform="translate(-2651.55 -623.08)"/><path class="cls-6" d="M3268.94,1175.35,3053.49,1210a101,101,0,0,1-50.14,12.93,123.58,123.58,0,0,1-18.45-1.43l-224.54,29.32L2824,1544l224.61-15.66a106.67,106.67,0,0,0,17.19,1.41c17.44,0,34.56-4.38,51.39-12.91L3341,1480.35Zm-157,331.13c-15.26,7.73-30.78,11.65-46.13,11.65a94.7,94.7,0,0,1-15.32-1.26l-1.32-.22-1.36.1-214.56,15-58.86-271,210.4-27.49a133.83,133.83,0,0,0,18.53,1.33,113,113,0,0,0,54-13.4l202.79-32.56,66.69,282.31-211.45,34.51-1.78.29Z" transform="translate(-2651.55 -623.08)"/><polygon class="cls-2" points="140.74 601.88 122.86 637.6 181.72 908.63 201.81 880.82 140.74 601.88"/><polygon class="cls-2" points="675.24 847.79 648.58 825.75 580.42 536.6 608.55 565.48 675.24 847.79"/><path class="cls-2" d="M3326.8,1470.87l-211.45,34.51-1.78.29-1.6.81c-15.26,7.73-30.78,11.65-46.13,11.65a94.7,94.7,0,0,1-15.32-1.26l-1.32-.22-1.36.1-214.56,15,20.08-27.81c5.55-5.5,59.13-12.16,113-13.93h.06c51.87-1.7,104,1.14,113.65,13.93,4.05-11.88,28.11-24.62,59.25-35.25,55.46-18.93,133.39-31.16,160.85-19.83Z" transform="translate(-2651.55 -623.08)"/><path class="cls-2" d="M3300.14,1448.82c-27.46-11.33-105.39.9-160.85,19.83-31.14,10.63-55.2,23.37-59.25,35.25-9.67-12.79-61.78-15.63-113.65-13.93h-.06c-53.84,1.77-107.42,8.43-113,13.93L2792.29,1225c83.66-18.23,157.6-17.12,225.29-3.51,37.94-39.89,119.69-54.57,214.4-61.77Z" transform="translate(-2651.55 -623.08)"/><path class="cls-2" d="M3080,1503.9l-62.46-282.45c17.06-41.7,85.8-68.65,181.82-87.82l66.19,277.17C3172,1431.33,3105.88,1461,3080,1503.9Z" transform="translate(-2651.55 -623.08)"/><path class="cls-2" d="M3080,1503.9c-42.28-26.34-118.71-27.39-207.41-19.36l-62.84-274.82c89-7.63,164.43-7.36,207.79,11.73Z" transform="translate(-2651.55 -623.08)"/><path class="cls-2" d="M3017.58,1221.45c-18.74-50.69-92.49-53.16-175.11-47.84l62,270.85c91.19-12.76,160.42,6.36,175.57,59.44Z" transform="translate(-2651.55 -623.08)"/><path class="cls-3" d="M3327.42,1472.49l.14,0,.2-.12.11-.07a1.66,1.66,0,0,0,.27-.26,1.74,1.74,0,0,0-.23-2.46l-26.21-21.68-66.58-282.44,23.73,24.37a1.74,1.74,0,0,0,2.5-2.43l-28.12-28.89a1.7,1.7,0,0,0-.14-.1,1.33,1.33,0,0,0-.19-.14l-.32-.16-.22-.07a2,2,0,0,0-.35,0l-.16,0c-8.25.63-16.43,1.32-24.36,2.06l-6.4-26.77a1.74,1.74,0,0,0-2-1.31c-104,20.75-163.4,48.62-181.39,85.11-9.64-21.72-30.41-35.56-63.34-42.21-33.57-6.79-75.43-5.3-112-3a1.75,1.75,0,0,0-1.29.7,1.7,1.7,0,0,0-.3,1.43l7.13,31.17c-12.07.72-24.92,1.66-38.26,2.81a1.74,1.74,0,0,0-1.55,2.13l2.16,9.43c-6.06,1.15-12.21,2.39-18.33,3.72,0,0-.06,0-.1,0a1.51,1.51,0,0,0-.45.2.61.61,0,0,0-.16.12,1.77,1.77,0,0,0-.3.31s-.07,0-.09.09l-.06.11,0,0-17.87,35.72a1.73,1.73,0,0,0,.77,2.34,1.75,1.75,0,0,0,2.35-.78l15.66-31.3,46.25,211.26,13.6,62.09-19.63,27.18a1.74,1.74,0,0,0,1.41,2.77,1.74,1.74,0,0,0,1.42-.73l20-27.66,0,0a4.64,4.64,0,0,1,.55-.4l.08-.05c.23-.13.49-.27.78-.4l.11,0c.3-.14.63-.28,1-.42l.13,0c.37-.15.78-.29,1.22-.43l.15,0c.44-.14.92-.29,1.43-.43l.17,0,1.64-.44.18,0,1.85-.45.2,0,2-.45.23,0,2.23-.45.22,0,2.42-.45.25,0,2.6-.45.25,0,2.78-.46.26,0,2.94-.45.29,0,3.09-.45.29,0,3.25-.44.31,0,3.4-.44.32,0,3.54-.43.3,0,3.7-.43.32,0,3.83-.42.3,0,4-.4.33,0,4.07-.4.32,0,4.19-.37.33,0,4.31-.37.28,0,4.46-.35.26,0,4.56-.34.28,0,4.64-.31.26,0c1.58-.11,3.16-.21,4.76-.3h.19l4.88-.28.21,0,5-.25h.13l5.08-.24h.12l5.16-.22h.08l5.26-.19,8.55-.24h.45q4.11-.09,8.18-.14h.19q3.75,0,7.45,0h2.89c2.11,0,4.22,0,6.29,0,2.58,0,5.13.08,7.67.14,1.26,0,2.51.06,3.77.1l1.85.06,2.54.1.77,0c.95,0,1.89.08,2.86.13s2,.09,3,.15c.45,0,.88,0,1.32.07l4,.25c1.12.07,2.22.15,3.33.25,1.88.13,3.71.3,5.48.46l2.8.28.48.05,1.68.19.91.1,1.53.19.84.1,1.47.19.26,0,.64.09h.22l.75.11.63.09c1.29.19,2.54.4,3.84.61l1.38.25.38.07q.88.15,1.74.33l1.72.34h.06l.15,0c.48.1,1,.2,1.49.33l.81.18,2.21.55a107.86,107.86,0,0,1,16.11,8.16l.07,0,.06,0,0,0,0,0,.1,0,.09,0,.07,0,.11,0h.34a1.1,1.1,0,0,0,.26,0l.08,0h.09l.05,0h0l.1,0,.09,0,.06,0,.08,0,.1-.06.06,0,0,0h0l.06,0,.08-.07a.46.46,0,0,0,.07-.07.65.65,0,0,0,.11-.12l.06-.07,0-.07,0-.06h0c1.47-2.45,3.09-4.86,4.83-7.23l.81-.81.22-.21c.33-.31.67-.61,1.05-1s.53-.47.85-.73l.79-.65.11-.09c.35-.29.71-.57,1.11-.87.77-.58,1.57-1.17,2.4-1.74l1.3-.89,1-.68.31-.19c1.48-1,2.91-1.81,4.39-2.65.52-.3,1.05-.6,1.6-.89s1.34-.75,2-1.11l2-1.06.14-.07c.7-.35,1.4-.71,2.16-1.07s1.49-.73,2.26-1.1l2.32-1.08h0c1.17-.53,2.37-1.07,3.6-1.6l.46-.2c1.08-.47,2.18-.94,3.31-1.41l1.77-.73.16-.07,2.45-1,.84-.33q2.45-1,5-1.91c2.94-1.1,6-2.17,9-3.2l2.54-.85.88-.29,1.69-.56,1.29-.41c.44-.14.87-.29,1.31-.42l1.65-.52,1-.31,2.28-.7.38-.12,2.32-.69.37-.11,2.63-.77.08,0,2.51-.72.23-.06,2.12-.6.65-.18,2.33-.64.44-.12,2.28-.61.53-.14,2.11-.55.72-.19,2.23-.57.59-.15,2.31-.57.54-.14,2.24-.54.62-.15,2.21-.52.67-.16,2.15-.5.73-.17,2.16-.49.72-.16,2.12-.46.78-.18,2.15-.46.74-.15,2-.43.86-.18,2-.4.89-.18,2-.38.95-.19,1.87-.36,1-.19,1.9-.35,1-.18,1.8-.32,1.09-.2,1.74-.3,1.13-.19,1.73-.29,1.13-.19,1.69-.27,1.16-.18,1.67-.26,1.16-.18,1.61-.23,1.22-.18,1.58-.22,1.21-.17,1.6-.22,1.19-.15,1.58-.21,1.17-.14,1.51-.18,1.24-.15,1.44-.16,1.27-.14,1.43-.15,1.26-.14,1.41-.13,1.24-.12,1.4-.13,1.23-.11,1.39-.11,1.21-.09,1.36-.1,1.2-.09,1.33-.08,1.2-.08,1.3-.07,1.19-.06,1.27-.06,1.18,0,1.26,0,1.15,0,1.24,0,1.13,0h1.21l1.11,0h3.45l1.06,0c.39,0,.77,0,1.16,0l1,0,1.12.05,1,0,1.09.06,1,.06,1.05.07,1,.08c.35,0,.68,0,1,.09l1,.08,1,.11.91.1,1,.12.87.12,1,.14.84.13.92.16.8.14.89.18.77.15.86.2.74.17.83.22.69.18.8.24.66.19.76.26.62.21.73.28.49.19,26.44,21.87a2,2,0,0,0,.49.28l.07,0a1.81,1.81,0,0,0,.51.08h.12l.2,0,.16,0Zm-129.33-336.82,65.39,273.81c-93.45,20.67-152.42,48.79-179.74,85.77-.3.3-.58.61-.8.85a1.92,1.92,0,0,0-.14.15h0l0,0c-.25.29-.51.58-.75.87-.49.59-.92,1.16-1.31,1.72l-58.79-265.93-2.52-11.33C3034.86,1184.87,3093.33,1156.75,3198.09,1135.67Zm-182.19,86.27,0,.12,58.44,264.31c-10.42-17.48-28.45-30.64-53.07-38.54-18.46-5.93-40.58-8.91-65.4-8.91a374.12,374.12,0,0,0-50.09,3.59l-54-236.13s0,0,0-.07l-7.12-31.09C2935,1169.56,2998.62,1175.49,3015.9,1221.94Zm-167.21-13.32,54.08,236.23a1.74,1.74,0,0,0,1.94,1.34c90.84-12.71,154.31,6.87,171.73,52.46l-.5-.29-.25-.14c-.61-.34-1.29-.68-2.19-1.09-.35-.17-.7-.31-1-.45l-.23-.09a.82.82,0,0,0-.19-.09l-.41-.16c-.2-.09-.41-.17-.58-.23-.43-.17-.88-.33-1.29-.47s-.87-.32-1.4-.49l-.12,0-1.29-.41-1.45-.42h0l-1.43-.39c-38.61-15.8-99-19.38-190.09-11.23l-62-271.37C2824.74,1210.2,2837.08,1209.3,2848.69,1208.62Zm183.12,280.5c-1.12-.1-2.25-.18-3.35-.25l-.48,0-2.95-.18-.63,0-1.36-.07c-1-.06-2-.12-3-.15l-2.5-.12h-.38l-3.33-.13-1.89-.06-3.78-.1q-3.81-.09-7.69-.14h0l-3.88,0h-5.51c-2.2,0-4.42,0-6.66,0h-1.09c-2.5,0-5,.08-7.55.14l-1,0q-4.25.09-8.52.24l-4,.14h-.37l-3.82.15-.57,0-3.75.17-.65,0-3.75.19-.65,0-3.79.21-.53,0-3.94.23-.29,0-4,.26H2936l-3.95.27-.52,0-3.81.27-.58,0-3.74.29-.61,0-3.73.3-.52,0-3.79.33-.32,0c-2.63.23-5.22.48-7.77.73l-.34,0-3.6.37-.49,0-3.46.37-.52.06-3.36.39-.48,0-3.32.41-.38,0-3.34.43-.11,0c-1.13.14-2.23.29-3.32.45h-.13l-3.11.45-.34,0-2.87.44-.42.07-2.69.44-.42.07-2.57.45-.34.06-2.49.47-.21,0c-1.68.33-3.25.67-4.71,1l-.19,0-2,.48-.27.07-1.76.48-.27.08-1.56.48-.24.07-1.39.49-.16.07c-.44.16-.86.33-1.23.5h0l-59.61-272.26-.57-2.6c5.57-1.2,11.15-2.31,16.66-3.35l59.9,262a1.72,1.72,0,0,0,1.86,1.35c74.82-6.77,128.85-5.67,167,3.56l-2.43-.25C3035.53,1489.42,3033.69,1489.25,3031.81,1489.12Zm97.86-18.89q-2.57.94-5.06,1.93l-.83.33-2.49,1-.16.07-1.8.74-1.9.8-1.41.61-.06,0c-1.43.62-2.81,1.24-4.12,1.84-.79.36-1.59.72-2.33,1.08l0,0-.17.08c-.73.34-1.45.69-2.12,1s-1.48.73-2.26,1.13l-.11,0-2,1.07c-.71.37-1.42.76-2.1,1.13s-1.14.63-1.67.94l-2.1,1.23c30.33-30.66,86-54.6,169.07-72.81a1.7,1.7,0,0,0,1.1-.78,1.73,1.73,0,0,0,.22-1.33l-59-247c7.28-.68,14.76-1.31,22.31-1.9l33.07,140.29,34,144.27-.2-.06c-.87-.27-1.77-.53-2.71-.76l-.26-.06c-1-.24-2-.47-3-.67l-.21,0c-1.06-.2-2.15-.39-3.28-.56h-.1c-1.12-.17-2.27-.31-3.46-.44l-.23,0c-1.16-.13-2.35-.23-3.57-.33l-.4,0q-1.79-.13-3.63-.21l-.54,0c-1.21,0-2.45-.09-3.7-.11l-.66,0c-1.24,0-2.5,0-3.78,0h-.76c-1.27,0-2.55,0-3.86.07l-.84,0-3.94.15-.91,0-4,.24-.94.06c-1.37.09-2.74.19-4.14.31l-1,.08-4.24.39-1,.1c-1.44.14-2.89.3-4.35.46l-.93.11-4.49.54-.87.12c-1.54.2-3.08.4-4.63.62l-.77.11-4.68.7-.76.12-4.67.75-.73.12-4.78.83-.75.13-4.85.9-.86.16-4.79,1-.93.19-4.74,1-1,.2-4.71,1-1,.23c-1.57.35-3.13.71-4.69,1.08l-1,.24-4.68,1.14-.95.24-4.68,1.19-.92.24-4.68,1.25-.83.23-4.7,1.31-.72.21-4.74,1.38-.6.18-4.77,1.46-.43.14c-1.62.5-3.24,1-4.83,1.54l-.27.09c-1.65.53-3.28,1.08-4.89,1.63C3135.69,1468,3132.64,1469.12,3129.67,1470.23Z" transform="translate(-2651.55 -623.08)"/><path class="cls-4" d="M2660.75,870.6l186.83,5.77c11.36,9.52,24.19,13,38.41,10.75a66,66,0,0,0,12.9-3.48l208.37,48.48,97.9-213.9-207.51-33.89a60.14,60.14,0,0,1-13.41,3.87c-14.36,2.29-26.82-2-37.9-11.14l-166.69-7.81ZM2854,868.7l-2.65-2.22-3.46-.1L2678,861.13l107.24-181.61,157.49,7.37c13.21,9.89,27.69,13.65,43.13,11.19a68,68,0,0,0,12.93-3.45L3190.6,726l-89,194.55L2901.16,873.9l-2.95-.68-2.83,1a56.6,56.6,0,0,1-11,3C2873,879.07,2863,876.28,2854,868.7Z" transform="translate(-2651.55 -623.08)"/><polygon class="cls-2" points="534.41 73.75 539.05 102.9 450.01 297.45 445.37 268.3 534.41 73.75"/><path class="cls-2" d="M2673.31,832l4.64,29.15,169.94,5.25,3.46.1,2.65,2.22c9,7.58,19,10.37,30.42,8.55a56.6,56.6,0,0,0,11-3l2.83-1,2.95.68,200.41,46.63-4.65-29.15c-48.55-14.51-93.14-25.33-131.89-30.69-34.48-4.79-64.32-5.25-88.22-.18-27.91-14.13-60.64-21.51-96-25.21C2746.75,831.7,2710.26,831.53,2673.31,832Z" transform="translate(-2651.55 -623.08)"/><path class="cls-2" d="M2673.31,832c37-.45,73.44-.28,107.5,3.32,35.36,3.7,68.09,11.08,96,25.21,23.9-5.07,53.74-4.61,88.22.18,38.75,5.36,83.34,16.18,131.89,30.69l89-194.56c-73.5-15.12-144.23-23.82-211.38-24.22-59.55-15.51-124.65-22.25-194-22.23Z" transform="translate(-2651.55 -623.08)"/><path class="cls-2" d="M2974.58,672.6l-97.77,187.91c-62.47-27.13-129.74-42.31-205-37.67L2780,639.4Z" transform="translate(-2651.55 -623.08)"/><path class="cls-2" d="M2974.58,672.6l-97.77,187.91c-25.73-30-105.91-48.42-207.42-53.13l107.47-182.8C2900.66,632.59,2963,648.07,2974.58,672.6Z" transform="translate(-2651.55 -623.08)"/><path class="cls-2" d="M2974.58,672.6l-97.77,187.91c32.7-17.82,85.71-24.56,209.25,7.18l91.2-187.31C3076.88,661.45,3010.18,659.28,2974.58,672.6Z" transform="translate(-2651.55 -623.08)"/><path class="cls-2" d="M2974.58,672.6l-97.77,187.91c19.43-32.91,98.6-29.58,197.85-14.07l94-183.64C3076.56,652.15,2996.23,647.47,2974.58,672.6Z" transform="translate(-2651.55 -623.08)"/><path class="cls-3" d="M2671.83,832.21l4.64,29.15a1.5,1.5,0,1,0,3-.47l-4.37-27.43h.78c21.7-.24,45.3-.25,68.18.72,1.69.07,3.39.15,5.08.24h.27c11.83.61,23.77,1.53,35.76,2.87h.09c19.55,2.37,36.56,5.13,56,10.91l.08,0h.08l.07,0c1.06.33,16.63,5.76,34.75,13.63h0a1.89,1.89,0,0,0,.34.09h.12a.94.94,0,0,0,.29,0h.14a171.37,171.37,0,0,1,28.33-3.35c17.3-.72,37.16.46,59.38,3.55q6.26.86,12.77,1.93l1.17.19,5,.85,2.2.38,4.69.86,2.7.5,4.6.9,2.95.57,4.56.94,3.16.66,4.5,1,3.4.74,4.47,1,3.6.82c1.49.34,3,.71,4.5,1.07l3.76.89,4.5,1.11,3.94,1,4.54,1.16,4.09,1,4.65,1.23,4.16,1.1,4.74,1.29,4.27,1.16,4.78,1.34,4.44,1.25,4.89,1.41c1.51.43,3,.85,4.51,1.3l5,1.48,4.17,1.23,4.49,28.22a1.5,1.5,0,0,0,3-.47l-4.57-28.71,76.75-167.72,10-21.91,3.86,24.25a1.5,1.5,0,1,0,3-.47l-4.65-29.15s0,0,0-.05a2.07,2.07,0,0,0-.13-.4h0s0,0,0,0a1.44,1.44,0,0,0-.23-.32l-.08-.07a1.54,1.54,0,0,0-.29-.21l-.06,0a2.06,2.06,0,0,0-.35-.12c-3.69-.75-8.42-1.71-13.32-2.67l5.67-11.65a1.49,1.49,0,0,0,0-1.32,1.53,1.53,0,0,0-1.07-.81c-4.36-.82-8.9-1.65-14.13-2.59l6.56-12.83a1.49,1.49,0,0,0-1.16-2.17c-86.28-10-169.23-15.74-193.88,8.75-14.22-24.22-77.33-39.18-198-47a1.52,1.52,0,0,0-1.39.74L2668.1,806.62a1.48,1.48,0,0,0,0,1.47,1.53,1.53,0,0,0,1.25.79q4.41.2,8.76.44l-7.52,12.76a1.5,1.5,0,0,0,1.38,2.26l4.28-.24-4.2,7.11,0,0a1.43,1.43,0,0,0-.14.34v0a1.64,1.64,0,0,0-.05.32s0,.08,0,.12A.81.81,0,0,0,2671.83,832.21Zm8-8.27a420.47,420.47,0,0,1,123.39,12.76c-5.68-.87-11.51-1.65-17.69-2.39h-.09c-12.5-1.48-25.8-2.43-39.37-3-24-1.13-47.51-1.07-70.08-.81Zm1.65-14.43c92.69,5.37,159.89,21.82,188.06,45.89a199.14,199.14,0,0,0-27-10l-.25-.07c-54.13-18.9-107.62-26.9-163.31-24.4h-.16c-1.4.06-2.8.12-4.2.2ZM2972.9,672.58l-75.17,144.48-21.25,40.84c-25.38-27.18-96.09-45.73-195.66-51.43h0q-4.39-.26-8.87-.47l105.74-179.86C2896.86,633.9,2960.76,649.1,2972.9,672.58ZM3166.3,664l-92.48,180.75c-105.17-16.36-165.16-14.83-189.91,5.32l39.54-76,52.38-100.66C2997.57,648.57,3080,654.12,3166.3,664Zm8.75,17.45-89.8,184.45c-57.4-14.69-102.52-21.87-137.88-21.93-26.69,0-47.75,3.91-65.66,12.35,10.58-11.87,31.67-18.28,64.15-19.54,31-1.21,73.06,2.42,128.57,11.1a1.77,1.77,0,0,0,.46,0,1.51,1.51,0,0,0,1.1-.8l86-168C3166.8,680,3171,680.74,3175.05,681.49Zm-3.47,14c4.38.85,8.67,1.72,12.23,2.45L3096.1,889.57l-4.47-1.32-4.51-1.33-5-1.43c-1.49-.43-3-.87-4.45-1.28-1.64-.47-3.24-.91-4.85-1.36l-4.39-1.23-4.74-1.3-4.28-1.16-4.68-1.24c-1.39-.36-2.78-.74-4.16-1.09l-4.57-1.18-4.07-1-4.52-1.11-3.93-1-4.48-1.06-3.8-.9c-1.47-.35-2.93-.67-4.39-1l-3.7-.84-4.39-1-3.52-.76c-1.49-.32-3-.61-4.44-.92l-3.3-.68-4.46-.87-3.11-.6c-1.51-.29-3-.56-4.5-.83l-2.91-.53c-1.55-.28-3.08-.53-4.61-.79l-2.63-.45c-1.62-.27-3.21-.52-4.8-.77l-2.29-.36q-3.51-.53-6.93-1c-30.65-4.25-56.89-4.9-78.21-2,28.64-12.14,79.59-18.68,198.66,11.92a1.4,1.4,0,0,0,.61,0,1.48,1.48,0,0,0,1.11-.82Z" transform="translate(-2651.55 -623.08)"/></svg>