<svg xmlns="http://www.w3.org/2000/svg" viewBox="0 0 538.57 535.76"><defs><style>.cls-1{isolation:isolate;}.cls-2{fill:#7ca66a;}.cls-3{fill:#38b1a2;}.cls-4,.cls-9{fill:#2e9588;}.cls-5{fill:#e4dfc3;}.cls-6{fill:#fac32a;}.cls-7{fill:#42c8b7;}.cls-8{fill:#91ba80;}.cls-9{mix-blend-mode:multiply;opacity:0.38;}</style></defs><g class="cls-1"><g id="Layer_1" data-name="Layer 1"><polygon class="cls-2" points="28.48 0 211.55 391.13 183.07 441.8 0 50.67 28.48 0"/><polygon class="cls-3" points="183.07 441.8 524.18 467.89 526.75 460.89 192.28 436.48 216.74 395.35 535.33 420.49 538.57 414.61 211.55 391.13 183.07 441.8"/><path class="cls-4" d="M1906.54,1834.28l-9.35-17.55-316.81-19.1-8.19,13.78,332.49,25.71A1.94,1.94,0,0,0,1906.54,1834.28Z" transform="translate(-1379.91 -1374.93)"/><polygon class="cls-5" points="196.36 429.63 514.2 455.86 530.5 420.11 216.74 395.35 196.36 429.63"/><path class="cls-6" d="M1714,1908.73s-40.08,4.41-55.5,0c0,0-4.81-8.21-9.91-18.71-6.37-13-13.11-29.42-11.65-38,2.64-15.5,8.79-42.82-10.56-58.66l62.08,4.19s16.74,16.94,10.13,35.42c-5.47,15.29-11.81,30.83,3,57.33A148.5,148.5,0,0,0,1714,1908.73Z" transform="translate(-1379.91 -1374.93)"/><path class="cls-7" d="M1714,1908.73s-40.08,4.41-55.5,0c0,0-4.81-8.21-9.91-18.71,13.08,1.12,35.17,2.36,53,.28A148.5,148.5,0,0,0,1714,1908.73Z" transform="translate(-1379.91 -1374.93)"/><path class="cls-8" d="M1916.38,1790.89l-324.88-24.83-183.07-391.13,317.3,44.84a1.94,1.94,0,0,1,1.45,1l191.07,367.27A1.93,1.93,0,0,1,1916.38,1790.89Z" transform="translate(-1379.91 -1374.93)"/><polygon class="cls-4" points="84.93 84.52 67.22 82.69 38.75 133.36 42.82 142.07 71.3 91.4 88.8 92.79 84.93 84.52"/><polygon class="cls-4" points="93.85 103.68 76.14 101.84 47.99 153.11 51.77 161.18 80.22 110.56 97.72 111.94 93.85 103.68"/><polygon class="cls-4" points="179.93 287.5 162.19 285.58 133.71 336.25 137.79 344.96 166.26 294.29 183.8 295.76 179.93 287.5"/><polygon class="cls-4" points="188.9 306.66 171.13 304.68 142.95 356 146.73 364.07 175.41 313.04 192.77 314.93 188.9 306.66"/><polygon class="cls-9" points="229.06 392.46 46.56 2.55 28.52 0 211.59 391.13 229.06 392.46"/><path class="cls-4" d="M1877.72,1755.7h0L1720.74,1454l-6.55-12.65-12-1.68-168.93-23.89a95.55,95.55,0,0,1,.22,11.75c-1.25,31.22-18,47-27.91,53.66a42.49,42.49,0,0,1-7.21,4l3,6.43,82.43,176.11,5.53,11.81a75.67,75.67,0,0,1,9-.19c20.6.62,71.84,7.95,103.84,62.86h0c1.65,2.82,3.27,5.81,4.79,8.91,0,0,0,0,0,0l12,.9,151.75,11.59,11.63.9Zm-162.88-12.46c-11-21-45.52-72.12-121.86-75.25l-83.93-179.25c26.45-12.56,31.23-44.37,32-60.1l167.75,23.71,157.34,302.48Z" transform="translate(-1379.91 -1374.93)"/><path class="cls-4" d="M1525.18,1414.66l-8.82-1.24-45.55-6.43-9.76-1.37,5.87,12.55,24.3,51.92,4.35,9.29a39.77,39.77,0,0,0,7.24-4c9.35-6.25,24.33-20.73,23.55-48.85A82.54,82.54,0,0,0,1525.18,1414.66Zm-27.09,50.62-21.41-45.74,40.73,5.75C1517.23,1436.16,1513.87,1452.51,1498.09,1465.28Z" transform="translate(-1379.91 -1374.93)"/><path class="cls-4" d="M1693,1741.59c-30.51-53.47-73.46-56.7-91.54-55.37a53.22,53.22,0,0,0-8.54,1.19l4.6,9.84,18,38.41,4.13,8.85v0l9.44.71,57.64,4.41,11,.84C1696.2,1747.4,1694.64,1744.42,1693,1741.59Zm-68-5.22-18.58-39.71c40-.49,64.85,28.78,75,44Z" transform="translate(-1379.91 -1374.93)"/></g></g></svg>